<svg width="130" height="41" viewBox="0 0 130 41" fill="none" xmlns="http://www.w3.org/2000/svg">
<path d="M0 0.880005H130V40.6954H0V0.880005Z" fill="#FF4800"/>
<path d="M47.127 20.3198H44.3877L44.373 18.811H46.6729C47.0781 18.811 47.4102 18.7598 47.6689 18.6572C47.9277 18.5498 48.1206 18.396 48.2476 18.1958C48.3794 17.9907 48.4453 17.7417 48.4453 17.4487C48.4453 17.1167 48.3818 16.8481 48.2549 16.6431C48.1328 16.438 47.9399 16.2891 47.6763 16.1963C47.4175 16.1035 47.083 16.0571 46.6729 16.0571H45.1494V25H42.9521V14.3359H46.6729C47.293 14.3359 47.8472 14.3945 48.3354 14.5117C48.8286 14.6289 49.2461 14.8071 49.5879 15.0464C49.9297 15.2856 50.1909 15.5884 50.3716 15.9546C50.5522 16.3159 50.6426 16.7456 50.6426 17.2437C50.6426 17.6831 50.5425 18.0884 50.3423 18.4595C50.147 18.8306 49.8369 19.1333 49.4121 19.3677C48.9922 19.6021 48.4429 19.7314 47.7642 19.7559L47.127 20.3198ZM47.0317 25H43.7871L44.644 23.2861H47.0317C47.4175 23.2861 47.7324 23.2251 47.9766 23.103C48.2207 22.9761 48.4014 22.8052 48.5186 22.5903C48.6357 22.3755 48.6943 22.1289 48.6943 21.8506C48.6943 21.5381 48.6406 21.2671 48.5332 21.0376C48.4307 20.8081 48.2646 20.6323 48.0352 20.5103C47.8057 20.3833 47.5029 20.3198 47.127 20.3198H45.0103L45.0249 18.811H47.6616L48.167 19.4043C48.8164 19.3945 49.3389 19.5093 49.7344 19.7485C50.1348 19.9829 50.4253 20.2881 50.606 20.6641C50.7915 21.04 50.8843 21.4429 50.8843 21.8726C50.8843 22.5562 50.7354 23.1323 50.4375 23.6011C50.1396 24.0649 49.7026 24.4141 49.1265 24.6484C48.5552 24.8828 47.8569 25 47.0317 25ZM57.0879 23.103V17.0752H59.1973V25H57.2124L57.0879 23.103ZM57.3223 21.4771L57.9448 21.4624C57.9448 21.9897 57.8838 22.4805 57.7617 22.9346C57.6396 23.3838 57.4565 23.7744 57.2124 24.1064C56.9683 24.4336 56.6606 24.6899 56.2896 24.8755C55.9185 25.0562 55.4814 25.1465 54.9785 25.1465C54.5928 25.1465 54.2363 25.0928 53.9092 24.9854C53.5869 24.873 53.3086 24.6997 53.0742 24.4653C52.8447 24.2261 52.6641 23.9209 52.5322 23.5498C52.4053 23.1738 52.3418 22.7222 52.3418 22.1948V17.0752H54.4512V22.2095C54.4512 22.4438 54.478 22.6416 54.5317 22.8027C54.5903 22.9639 54.6709 23.0957 54.7734 23.1982C54.876 23.3008 54.9956 23.374 55.1323 23.418C55.2739 23.4619 55.4302 23.4839 55.6011 23.4839C56.0356 23.4839 56.3774 23.396 56.6265 23.2202C56.8804 23.0444 57.0586 22.8052 57.1611 22.5024C57.2686 22.1948 57.3223 21.853 57.3223 21.4771ZM63.1597 24.1064L65.2617 17.0752H67.5249L64.3389 26.1938C64.2705 26.394 64.1777 26.6089 64.0605 26.8384C63.9482 27.0679 63.7944 27.2852 63.5991 27.4902C63.4087 27.7002 63.167 27.8711 62.874 28.0029C62.5859 28.1348 62.2319 28.2007 61.812 28.2007C61.6118 28.2007 61.4482 28.1885 61.3213 28.1641C61.1943 28.1396 61.043 28.1055 60.8672 28.0615V26.5161C60.9209 26.5161 60.9771 26.5161 61.0356 26.5161C61.0942 26.521 61.1504 26.5234 61.2041 26.5234C61.4824 26.5234 61.7095 26.4917 61.8853 26.4282C62.061 26.3647 62.2026 26.2671 62.3101 26.1353C62.4175 26.0083 62.5029 25.8423 62.5664 25.6372L63.1597 24.1064ZM62.2808 17.0752L64.002 22.8174L64.3022 25.0513L62.8667 25.2051L60.0176 17.0752H62.2808ZM80.9136 14.3359V25H78.7163L74.4316 17.8516V25H72.2344V14.3359H74.4316L78.7236 21.4917V14.3359H80.9136ZM82.3564 21.1182V20.9644C82.3564 20.3833 82.4395 19.8486 82.6055 19.3604C82.7715 18.8672 83.0132 18.4399 83.3306 18.0786C83.6479 17.7173 84.0386 17.4365 84.5024 17.2363C84.9663 17.0312 85.4985 16.9287 86.0991 16.9287C86.6997 16.9287 87.2344 17.0312 87.7031 17.2363C88.1719 17.4365 88.5649 17.7173 88.8823 18.0786C89.2046 18.4399 89.4487 18.8672 89.6147 19.3604C89.7808 19.8486 89.8638 20.3833 89.8638 20.9644V21.1182C89.8638 21.6943 89.7808 22.229 89.6147 22.7222C89.4487 23.2104 89.2046 23.6377 88.8823 24.0039C88.5649 24.3652 88.1743 24.646 87.7104 24.8462C87.2466 25.0464 86.7144 25.1465 86.1138 25.1465C85.5132 25.1465 84.9785 25.0464 84.5098 24.8462C84.0459 24.646 83.6528 24.3652 83.3306 24.0039C83.0132 23.6377 82.7715 23.2104 82.6055 22.7222C82.4395 22.229 82.3564 21.6943 82.3564 21.1182ZM84.4658 20.9644V21.1182C84.4658 21.4502 84.4951 21.7603 84.5537 22.0483C84.6123 22.3364 84.7051 22.5903 84.832 22.8101C84.9639 23.0249 85.1348 23.1934 85.3447 23.3154C85.5547 23.4375 85.811 23.4985 86.1138 23.4985C86.4067 23.4985 86.6582 23.4375 86.8682 23.3154C87.0781 23.1934 87.2466 23.0249 87.3735 22.8101C87.5005 22.5903 87.5933 22.3364 87.6519 22.0483C87.7153 21.7603 87.7471 21.4502 87.7471 21.1182V20.9644C87.7471 20.6421 87.7153 20.3394 87.6519 20.0562C87.5933 19.7681 87.498 19.5142 87.3662 19.2944C87.2393 19.0698 87.0708 18.894 86.8608 18.7671C86.6509 18.6401 86.397 18.5767 86.0991 18.5767C85.8013 18.5767 85.5474 18.6401 85.3374 18.7671C85.1323 18.894 84.9639 19.0698 84.832 19.2944C84.7051 19.5142 84.6123 19.7681 84.5537 20.0562C84.4951 20.3394 84.4658 20.6421 84.4658 20.9644ZM93.4233 22.9492L95.0713 17.0752H96.4116L95.9795 19.3823L94.3315 25H93.2109L93.4233 22.9492ZM92.5884 17.0752L93.7676 22.9419L93.8774 25H92.5591L90.5522 17.0752H92.5884ZM97.9204 22.8467L99.0703 17.0752H101.114L99.1069 25H97.7959L97.9204 22.8467ZM96.5947 17.0752L98.2354 22.9053L98.4624 25H97.3345L95.6865 19.3896L95.269 17.0752H96.5947Z" fill="white"/>
<path d="M35.9286 18.2796H35.3929V16.2612C35.3929 13.9119 33.8705 12 32 12C30.1295 12 28.6071 13.9119 28.6071 16.2612V18.2796H28.0714C27.4799 18.2796 27 18.8824 27 19.6253V25.0078C27 25.7507 27.4799 26.3534 28.0714 26.3534H35.9286C36.5201 26.3534 37 25.7507 37 25.0078V19.6253C37 18.8824 36.5201 18.2796 35.9286 18.2796ZM33.6071 18.2796H30.3929V16.2612C30.3929 15.1482 31.1138 14.2427 32 14.2427C32.8862 14.2427 33.6071 15.1482 33.6071 16.2612V18.2796Z" fill="white"/>
</svg>
